<?xml version="1.0" encoding="utf-8"?>
<!-- Generator: Adobe Illustrator 28.3.0, SVG Export Plug-In . SVG Version: 6.00 Build 0)  -->
<svg version="1.0" id="Layer_1" xmlns="http://www.w3.org/2000/svg" xmlns:xlink="http://www.w3.org/1999/xlink" x="0px" y="0px"
	 viewBox="0 0 64 64" style="enable-background:new 0 0 64 64;" xml:space="preserve">
<style type="text/css">
	.st0{fill:none;stroke:#231F20;stroke-width:2;stroke-linecap:round;stroke-linejoin:round;stroke-miterlimit:10;}
</style>
<g>
	<path class="st0" d="M31.5,59.4c0.4-2.7,3.4-2.4,3.4-2.4s0.2-2,2.2-2.3c0.2,0,0.4-0.1,0.6-0.1c0,0,0.1-1.1,1.3-1.6
		c0.3-0.1,0.6-0.2,1.1-0.3c1.8-0.2,2.9,1.1,2.9,2.1c0,0,2.6-0.6,3.1,2.1c0,0,2.5-0.5,2.5,2.4"/>
	<path class="st0" d="M27.8,21.6c0,0,6.3-1.8,13.4,2.3c10.3,5.9,19.9,3.3,19.9-7.7c0-11.6-9.9-13-17.4-10.5
		C35,8.5,31.5,9.3,24.1,7.1c-5.7-1.7-10.3-0.4-11.4,4.5C11.5,16.2,13.4,24.9,27.8,21.6z"/>
	<path class="st0" d="M28.3,18.2c0,0,6.8-1.9,12.9,1.6c10.3,5.8,15.8,2.6,16-3.4c0.3-6.7-5.3-10.3-13.8-7
		c-8.1,3.2-14.1,2.7-18.7,1.3c-5-1.5-7.6-1.1-8.4,1.6C15.5,15.5,16.2,20.5,28.3,18.2z"/>
	<path class="st0" d="M36.2,45.1c0,0-6.3-1.8-13.4,2.3c-10.3,5.9-19.9,3.3-19.9-7.7c0-11.6,9.9-13,17.4-10.5
		c8.7,2.9,12.3,3.6,19.7,1.4c5.7-1.7,10.3-0.4,11.4,4.5C52.5,39.8,50.6,48.5,36.2,45.1z"/>
	<path class="st0" d="M35.7,41.8c0,0-6.8-1.9-12.9,1.6C12.5,49.2,7,46,6.8,40c-0.3-6.7,5.3-10.3,13.8-7c8.1,3.2,14.1,2.7,18.7,1.3
		c5-1.5,7.6-1.1,8.4,1.6C48.5,39.1,47.8,44,35.7,41.8z"/>
	<line class="st0" x1="16.8" y1="21.3" x2="16.8" y2="28.4"/>
	<line class="st0" x1="45.7" y1="25.9" x2="45.7" y2="30"/>
	<line class="st0" x1="22.2" y1="29.9" x2="22.2" y2="22.3"/>
	<line class="st0" x1="26.8" y1="31.2" x2="26.8" y2="21.8"/>
	<line class="st0" x1="31.4" y1="31.9" x2="31.4" y2="21.2"/>
	<line class="st0" x1="36" y1="31.6" x2="36" y2="21.7"/>
	<line class="st0" x1="40.6" y1="30.5" x2="40.6" y2="23.5"/>
	<line class="st0" x1="8.8" y1="49.8" x2="8.8" y2="55.5"/>
	<line class="st0" x1="42" y1="53" x2="42" y2="45.9"/>
	<polyline class="st0" points="28.5,59.3 28.5,52.3 33.1,52.3 33.1,57.3 	"/>
	<line class="st0" x1="2.8" y1="59.4" x2="53.6" y2="59.4"/>
	<line class="st0" x1="12.9" y1="50.5" x2="12.9" y2="55.5"/>
	<path class="st0" d="M20.6,55.5H5.2c-0.5,0-0.8,0.4-0.8,0.8v3h17v-3C21.4,55.9,21,55.5,20.6,55.5z"/>
</g>
</svg>
