<?xml version="1.0" encoding="utf-8"?>
<!-- Generator: Adobe Illustrator 28.3.0, SVG Export Plug-In . SVG Version: 6.00 Build 0)  -->
<svg version="1.0" id="Layer_1" xmlns="http://www.w3.org/2000/svg" xmlns:xlink="http://www.w3.org/1999/xlink" x="0px" y="0px"
	 viewBox="0 0 64 64" style="enable-background:new 0 0 64 64;" xml:space="preserve">
<style type="text/css">
	.st0{fill:none;stroke:#231F20;stroke-width:2;stroke-linecap:round;stroke-linejoin:round;stroke-miterlimit:10;}
</style>
<g>
	<g>
		<path class="st0" d="M42.4,50.4H11.8c-3.2,0-5.9-2.6-5.9-5.9v-4c0-3.2,2.6-5.9,5.9-5.9h36c3.2,0,5.9,2.6,5.9,5.9v4
			c0,2.5-1.6,4.7-3.9,5.5"/>
		<path class="st0" d="M26.5,34.7h17.4c3.2,0,5.9-2.6,5.9-5.9v-4c0-3.2-2.6-5.9-5.9-5.9H22.3c-3.2,0-5.9,2.6-5.9,5.9v3.6"/>
		<path class="st0" d="M42.6,15.6c0.4-0.8,0.6-1.6,0.6-2.5V9c0-3.2-2.6-5.9-5.9-5.9H15.7c-3.2,0-5.9,2.6-5.9,5.9v4
			c0,3.2,2.6,5.9,5.9,5.9h6.6"/>
		<line class="st0" x1="24.8" y1="10" x2="21.9" y2="14.1"/>
		<line class="st0" x1="30.1" y1="8" x2="27.2" y2="12.1"/>
		<line class="st0" x1="32.9" y1="25.2" x2="30.1" y2="29.2"/>
		<line class="st0" x1="38.2" y1="23.1" x2="35.4" y2="27.2"/>
		<line class="st0" x1="23.3" y1="41.6" x2="20.4" y2="45.7"/>
		<line class="st0" x1="28.6" y1="39.6" x2="25.7" y2="43.6"/>
		<path class="st0" d="M42.4,60.8H17.7c-1.7,0-3.1-1.4-3.1-3.1v-4.2c0-1.7,1.4-3.1,3.1-3.1h24.7V60.8z"/>
		<path class="st0" d="M36.3,60.8H23.8v-3.4c0-1.4,1.1-2.5,2.5-2.5h7.5c1.4,0,2.5,1.1,2.5,2.5V60.8z"/>
		<path class="st0" d="M11.8,34.7c0,0-0.4-2.9,2.6-3.2c0,0,0.1-3.2,3.3-3.3c3.2-0.1,4.2,2.7,4.2,2.7s4.5-0.4,4.7,3.8"/>
		<path class="st0" d="M49.8,55.7V50v-8.3c0-1-0.8-1.8-1.8-1.8h-3.7c-1,0-1.8,0.8-1.8,1.8v8.7v10.4"/>
		<path class="st0" d="M45.3,19.1c0-0.5,0-2.8-2.6-3.1c0,0,0-0.1,0-0.4c-0.1-0.8-0.7-2.9-3.2-3c-3.2-0.1-4.2,2.7-4.2,2.7
			S31,15,30.6,18.9"/>
	</g>
	<path class="st0" d="M45,60.8c0,0-0.3-2.2,2-2.5c0,0,0.1-2.5,2.5-2.6s3.2,2.1,3.2,2.1s3.5-0.3,3.6,3"/>
	<line class="st0" x1="9.1" y1="60.8" x2="59.4" y2="60.8"/>
</g>
</svg>
