<?xml version="1.0" encoding="utf-8"?>
<!-- Generator: Adobe Illustrator 28.3.0, SVG Export Plug-In . SVG Version: 6.00 Build 0)  -->
<svg version="1.0" id="Layer_1" xmlns="http://www.w3.org/2000/svg" xmlns:xlink="http://www.w3.org/1999/xlink" x="0px" y="0px"
	 viewBox="0 0 64 64" style="enable-background:new 0 0 64 64;" xml:space="preserve">
<style type="text/css">
	.st0{fill:none;stroke:#231F20;stroke-width:2;stroke-linecap:round;stroke-linejoin:round;stroke-miterlimit:10;}
</style>
<g>
	<path class="st0" d="M33.2,60.8c0.6-3.9,5.1-3.6,5.1-3.6s0.3-2.9,3.2-3.5c0.3-0.1,0.5-0.1,0.8-0.1c0,0,0.2-1.6,1.9-2.4
		c0.4-0.2,0.9-0.4,1.6-0.4c2.6-0.3,4.3,1.6,4.3,3.2c0,0,3.8-0.9,4.6,3.2c0,0,3.7-0.7,3.7,3.6"/>
	<polyline class="st0" points="33.2,60.8 30.5,60.8 30.5,43.2 30.5,3.2 38.1,3.2 38.1,43.2 38.1,57.1 	"/>
	<polyline class="st0" points="30.5,8.2 5.5,8.2 5.5,25.7 18.6,25.7 30.5,25.7 	"/>
	<polyline class="st0" points="38.1,25.7 46.5,25.7 46.5,8.2 38.1,8.2 	"/>
	<polyline class="st0" points="30.5,25.7 18.6,25.7 18.6,43.2 30.5,43.2 	"/>
	<polyline class="st0" points="38.1,43.2 46.5,43.2 59.7,43.2 59.7,25.7 46.5,25.7 38.1,25.7 	"/>
	<polyline class="st0" points="30.5,43.2 18.6,43.2 5.5,43.2 5.5,60.8 30.5,60.8 	"/>
	<polyline class="st0" points="38.1,43.2 46.5,43.2 46.5,50.8 	"/>
	<rect x="5.5" y="11.5" class="st0" width="25" height="10.9"/>
	<rect x="38.1" y="29" class="st0" width="21.7" height="10.9"/>
	<line class="st0" x1="2.4" y1="60.8" x2="61.6" y2="60.8"/>
	<rect x="25.8" y="51.5" class="st0" width="4.7" height="9.3"/>
</g>
</svg>
