<?xml version="1.0" encoding="utf-8"?>
<!-- Generator: Adobe Illustrator 28.3.0, SVG Export Plug-In . SVG Version: 6.00 Build 0)  -->
<svg version="1.0" id="Layer_1" xmlns="http://www.w3.org/2000/svg" xmlns:xlink="http://www.w3.org/1999/xlink" x="0px" y="0px"
	 viewBox="0 0 64 64" style="enable-background:new 0 0 64 64;" xml:space="preserve">
<style type="text/css">
	.st0{fill:none;stroke:#231F20;stroke-width:2;stroke-linecap:round;stroke-linejoin:round;stroke-miterlimit:10;}
</style>
<g>
	<line class="st0" x1="26.3" y1="19.2" x2="23.6" y2="23.2"/>
	<line class="st0" x1="31.5" y1="17.2" x2="28.7" y2="21.2"/>
	<path class="st0" d="M28.7,51.9c0,2.8-2.3,5.1-5.1,5.1s-5.1-2.3-5.1-5.1c0-1.2,0.4-2.4,1.2-3.2c-0.3-0.6-0.4-1.2-0.4-1.8
		c0-1.5,0.7-2.8,1.9-3.5c-0.3-0.5-0.5-1-0.5-1.6c0-1.6,1.3-3,3-3s3,1.3,3,3c0,0.6-0.2,1.2-0.5,1.6c1.1,0.8,1.9,2.1,1.9,3.5
		c0,0.7-0.1,1.3-0.4,1.8C28.3,49.5,28.7,50.6,28.7,51.9z"/>
	<line class="st0" x1="23.6" y1="61.3" x2="23.6" y2="54.7"/>
	<path class="st0" d="M18.6,51.8h-7.7c-2.1,0-3.7-1.7-3.7-3.7V39c0-1.5,1-2.9,2.4-3.5l40.5-15.8c0.4-0.1,0.6-0.5,0.6-0.9V9.4
		c0-1.5-1.5-2.6-2.9-2.1L6.1,20.4c-0.6,0.2-1.3-0.3-1.3-0.9v-2.3c0-0.4,0.3-0.8,0.7-0.9L46,3c4.5-1.5,9.1,1.8,9.1,6.5v9.7
		c0,2.1-1.3,4-3.3,4.7L12.9,38.3c-0.8,0.3-1.4,1.1-1.4,2v6c0,1.2,0.9,2.1,2.1,2.1h6"/>
	<path class="st0" d="M27.7,48.3H42c1.9,0,3.8,0.8,5.1,2.3l9.8,10.7h-5.2l-6.7-7.5c-1.2-1.3-2.8-2-4.5-2H28.7"/>
	<line class="st0" x1="9.5" y1="19.3" x2="9.5" y2="35.5"/>
	<line class="st0" x1="42" y1="48.3" x2="42" y2="27.6"/>
	<line class="st0" x1="38.3" y1="48.3" x2="38.3" y2="29"/>
	<line class="st0" x1="14.3" y1="51.8" x2="14.3" y2="61.3"/>
	<line class="st0" x1="4.4" y1="61.3" x2="59.6" y2="61.3"/>
</g>
</svg>
