<?xml version="1.0" encoding="utf-8"?>
<!-- Generator: Adobe Illustrator 28.3.0, SVG Export Plug-In . SVG Version: 6.00 Build 0)  -->
<svg version="1.0" id="Layer_1" xmlns="http://www.w3.org/2000/svg" xmlns:xlink="http://www.w3.org/1999/xlink" x="0px" y="0px"
	 viewBox="0 0 64 64" style="enable-background:new 0 0 64 64;" xml:space="preserve">
<style type="text/css">
	.st0{fill:none;stroke:#231F20;stroke-width:2;stroke-linecap:round;stroke-linejoin:round;stroke-miterlimit:10;}
</style>
<g>
	<path class="st0" d="M62.2,47.6c0,2.7-2.2,4.8-4.8,4.8s-4.8-2.2-4.8-4.8c0-1.2,0.4-2.2,1.1-3.1c-0.3-0.5-0.4-1.1-0.4-1.8
		c0-1.4,0.7-2.6,1.8-3.4c-0.3-0.4-0.5-1-0.5-1.6c0-1.6,1.3-2.8,2.8-2.8s2.8,1.3,2.8,2.8c0,0.6-0.2,1.1-0.5,1.6
		c1.1,0.7,1.8,2,1.8,3.4c0,0.6-0.1,1.2-0.4,1.8C61.8,45.3,62.2,46.4,62.2,47.6z"/>
	<line class="st0" x1="57.4" y1="59.5" x2="57.4" y2="52.4"/>
	<path class="st0" d="M29.7,59.5V16c0-6.4,5.2-11.5,11.5-11.5h8.7c0.8,0,1.4,0.6,1.4,1.4v2c0,0.8-0.6,1.4-1.4,1.4h-7.1
		c-4.5,0-8.1,3.6-8.1,8.1v29.4c0,4.5,3.6,8.1,8.1,8.1h7.1c0.8,0,1.4,0.6,1.4,1.4v1.9c0,0.8-0.6,1.4-1.4,1.4H29.7z"/>
	<line class="st0" x1="48.4" y1="9.2" x2="48.4" y2="54.9"/>
	<path class="st0" d="M29.7,18.8H5.3c-0.6,0-1.1,0.5-1.1,1.1v1.8c0,0.6,0.5,1.1,1.1,1.1h6.5c3.5,0,6.4,2.9,6.4,6.4v19.4
		c0,3.5-2.9,6.4-6.4,6.4H5.3c-0.6,0-1.1,0.5-1.1,1.1v3.6h25.4"/>
	<line class="st0" x1="7.9" y1="22.7" x2="7.9" y2="54.9"/>
	<polyline class="st0" points="24.4,59.5 24.4,47.7 29.7,47.7 	"/>
	<line class="st0" x1="1.8" y1="59.5" x2="60.7" y2="59.5"/>
</g>
</svg>
