<?xml version="1.0" encoding="utf-8"?>
<!-- Generator: Adobe Illustrator 28.3.0, SVG Export Plug-In . SVG Version: 6.00 Build 0)  -->
<svg version="1.0" id="Layer_1" xmlns="http://www.w3.org/2000/svg" xmlns:xlink="http://www.w3.org/1999/xlink" x="0px" y="0px"
	 viewBox="0 0 64 64" style="enable-background:new 0 0 64 64;" xml:space="preserve">
<style type="text/css">
	.st0{fill:none;stroke:#231F20;stroke-width:2;stroke-linecap:round;stroke-linejoin:round;stroke-miterlimit:10;}
</style>
<g>
	<path class="st0" d="M9.2,59.4c0,0,13.6-21.5,45.1-21.1l0.1-3.6C19.4,34.3,4.3,59.3,4.3,59.3L9.2,59.4z"/>
	<path class="st0" d="M38.7,36.3C31.4,31,20.1,25.7,4.4,25.8v-3.6c18.4-0.2,31.1,6.6,39.3,13.1"/>
	<polyline class="st0" points="4.4,25.8 4.4,45.4 18.2,45.4 	"/>
	<polyline class="st0" points="4.4,45.4 4.4,48.9 13.6,48.9 	"/>
	<path class="st0" d="M9.2,59.4h26l0,0c0.6-3.8,5-3.5,5-3.5s0.3-2.9,3.2-3.4c0.3-0.1,0.5-0.1,0.8-0.1c0,0,0.2-1.5,1.8-2.3
		c0.4-0.2,0.9-0.3,1.5-0.4c2.5-0.2,4.2,1.5,4.2,3.1c0,0,3.7-0.9,4.5,3.1c0,0,3.6-0.7,3.6,3.5"/>
	<line class="st0" x1="54.3" y1="53" x2="54.3" y2="38.2"/>
	<path class="st0" d="M48.3,15.6c-11.6,0.7-20.5,4.4-27,8.5"/>
	<path class="st0" d="M48.3,12c-14.1,0.8-24.6,5.8-32,11.1"/>
	<polyline class="st0" points="48.3,34.8 48.3,15.6 48.3,12 48.3,12 	"/>
	<line class="st0" x1="1.9" y1="59.4" x2="62.1" y2="59.4"/>
	<path class="st0" d="M17.5,14.7c0,2.1-1.7,3.9-3.9,3.9s-3.9-1.7-3.9-3.9c0-0.9,0.3-1.8,0.9-2.5c-0.2-0.4-0.3-0.9-0.3-1.4
		c0-1.1,0.6-2.1,1.4-2.7c-0.2-0.4-0.4-0.8-0.4-1.2c0-1.3,1-2.3,2.3-2.3s2.3,1,2.3,2.3c0,0.5-0.1,0.9-0.4,1.2
		c0.9,0.6,1.4,1.6,1.4,2.7c0,0.5-0.1,1-0.3,1.4C17.2,12.9,17.5,13.8,17.5,14.7z"/>
	<line class="st0" x1="13.6" y1="22.7" x2="13.6" y2="18.6"/>
</g>
</svg>
