<?xml version="1.0" encoding="utf-8"?>
<!-- Generator: Adobe Illustrator 28.3.0, SVG Export Plug-In . SVG Version: 6.00 Build 0)  -->
<svg version="1.0" id="Layer_1" xmlns="http://www.w3.org/2000/svg" xmlns:xlink="http://www.w3.org/1999/xlink" x="0px" y="0px"
	 viewBox="0 0 64 64" style="enable-background:new 0 0 64 64;" xml:space="preserve">
<style type="text/css">
	.st0{fill:none;stroke:#231F20;stroke-width:2;stroke-linecap:round;stroke-linejoin:round;stroke-miterlimit:10;}
</style>
<g>
	<path class="st0" d="M33.8,21.2H8.6c-1.1,0-2,1-2,2.2v8.7c0,1.2,0.9,2.2,2,2.2H28"/>
	<polyline class="st0" points="26.4,37.9 26.4,55.8 9.1,55.8 9.1,37.9 	"/>
	<line class="st0" x1="12.5" y1="37.9" x2="12.5" y2="55.8"/>
	<line class="st0" x1="16.1" y1="37.9" x2="16.1" y2="55.8"/>
	<path class="st0" d="M30.5,37.9h24.8c2,0,3.5,1.8,3.5,4v9.9c0,2.2-1.6,4-3.5,4H30.5V37.9l10.9-24.1c0.4-0.8,1.1-1.4,1.9-1.4h9.3
		c1.4,0,2.4,1.2,2.4,2.8v9.2c0,1.5-1.1,2.8-2.4,2.8H35.4l-1.9,4.2h18.6c3.7,0,6.8-3.4,6.8-7.6v-7.9c0-4.2-3-7.6-6.8-7.6h-9
		c-2.1,0-4.1,1.4-5.1,3.5L26.4,37.9h-18c-3.1,0-5.6-2.8-5.6-6.4v-8.1c0-3.5,2.5-6.4,5.6-6.4h27.2"/>
	<line class="st0" x1="4.6" y1="55.8" x2="61.3" y2="55.8"/>
	<line class="st0" x1="51.1" y1="31.4" x2="51.1" y2="37.9"/>
	<line class="st0" x1="46.5" y1="31.4" x2="46.5" y2="37.9"/>
	<line class="st0" x1="42" y1="31.4" x2="42" y2="37.9"/>
	<path class="st0" d="M36.4,55.8c0,0,0.3-3.9,4.6-4c0,0,0.4-2.8,3.8-3.1c2.9-0.3,4.8,1.7,4.8,3.5c0,0,4.2-1,5.1,3.6"/>
	<polyline class="st0" points="30.5,45.9 36.4,45.9 36.4,55.8 	"/>
</g>
</svg>
