<?xml version="1.0" encoding="utf-8"?>
<!-- Generator: Adobe Illustrator 28.3.0, SVG Export Plug-In . SVG Version: 6.00 Build 0)  -->
<svg version="1.0" id="Layer_1" xmlns="http://www.w3.org/2000/svg" xmlns:xlink="http://www.w3.org/1999/xlink" x="0px" y="0px"
	 viewBox="0 0 64 64" style="enable-background:new 0 0 64 64;" xml:space="preserve">
<style type="text/css">
	.st0{fill:none;stroke:#231F20;stroke-width:2;stroke-linecap:round;stroke-linejoin:round;stroke-miterlimit:10;}
</style>
<g>
	<path class="st0" d="M30.3,60.8c0.6-4.3,5.6-3.9,5.6-3.9s0.3-3.2,3.5-3.8C39.7,53,40,53,40.3,53c0,0,0.2-1.7,2-2.6
		c0.5-0.2,1-0.4,1.7-0.5c2.8-0.3,4.7,1.7,4.7,3.5c0,0,4.1-1,5,3.5c0,0,4-0.8,4,3.9"/>
	<path class="st0" d="M30.3,60.8H10.2c-3.9,0-7.1-3.2-7.1-7.1V43.5c0-3.9,3.2-7.1,7.1-7.1h42.6c1.7,0,3-1.4,3-3v-5.1
		c0-1.7-1.4-3-3-3H15.4c-4.4,0-8-3.6-8-8v-5.9c0-4.4,3.6-8,8-8h35.2c0.8,0,1.4,0.6,1.4,1.4V6c0,0.8-0.6,1.4-1.4,1.4H15.9
		c-2.2,0-4,1.8-4,4V17c0,2.2,1.8,4,4,4h37.2c3.9,0,7.1,3.2,7.1,7.1v5.7c0,3.9-3.2,7.1-7.1,7.1H51H10c-1.5,0-2.8,1.2-2.8,2.8v9.9
		c0,1.5,1.2,2.8,2.8,2.8h25.9"/>
	<line class="st0" x1="48.4" y1="7.4" x2="48.4" y2="21"/>
	<line class="st0" x1="15.4" y1="25.2" x2="15.4" y2="36.4"/>
	<line class="st0" x1="51" y1="40.9" x2="51" y2="53.5"/>
	<line class="st0" x1="20.5" y1="25.2" x2="20.5" y2="36.4"/>
	<line class="st0" x1="25.6" y1="25.2" x2="25.6" y2="36.4"/>
	<line class="st0" x1="30.7" y1="25.2" x2="30.7" y2="36.4"/>
	<line class="st0" x1="35.8" y1="25.2" x2="35.8" y2="36.4"/>
	<line class="st0" x1="40.8" y1="25.2" x2="40.8" y2="36.4"/>
	<line class="st0" x1="45.9" y1="25.2" x2="45.9" y2="36.4"/>
	<line class="st0" x1="51" y1="25.2" x2="51" y2="36.4"/>
	<line class="st0" x1="28.1" y1="13.2" x2="25.3" y2="17.1"/>
	<line class="st0" x1="33" y1="12.2" x2="30.3" y2="16.2"/>
	<line class="st0" x1="26.7" y1="47" x2="23.9" y2="51"/>
	<line class="st0" x1="31.7" y1="46.1" x2="28.9" y2="50.1"/>
	<line class="st0" x1="3.1" y1="60.8" x2="60.9" y2="60.8"/>
</g>
</svg>
