<?xml version="1.0" encoding="utf-8"?>
<!-- Generator: Adobe Illustrator 28.3.0, SVG Export Plug-In . SVG Version: 6.00 Build 0)  -->
<svg version="1.0" id="Layer_1" xmlns="http://www.w3.org/2000/svg" xmlns:xlink="http://www.w3.org/1999/xlink" x="0px" y="0px"
	 viewBox="0 0 64 64" style="enable-background:new 0 0 64 64;" xml:space="preserve">
<style type="text/css">
	.st0{fill:none;stroke:#231F20;stroke-width:2;stroke-linecap:round;stroke-linejoin:round;stroke-miterlimit:10;}
</style>
<g>
	<path class="st0" d="M31.7,59.6h4.2c1.4,0,2.7-0.5,3.7-1.4l8-6.8"/>
	<path class="st0" d="M13.3,51.9L3.7,33.5c-0.9-1.6-0.9-3.6,0-5.2L14.4,7.5c1.1-2.2,3.6-3.4,6.1-3l30.4,5.4c2.1,0.4,3.9,1.9,4.5,4
		l6.2,21.3c0.6,2.1-0.1,4.5-1.8,5.9l-5,4.2"/>
	<path class="st0" d="M16.3,49.2L8.2,33.6c-0.8-1.6-0.8-3.6,0-5.2l8.7-17c1.1-2.2,3.6-3.4,6-3l25,4.4c2.1,0.4,3.8,1.9,4.4,4
		l5.1,17.4c0.6,2.1-0.1,4.4-1.8,5.9l-1.3,1.1"/>
	<path class="st0" d="M4.2,59.6c0.6-4.3,5.6-3.9,5.6-3.9s0.3-3.2,3.5-3.8c0.3-0.1,0.6-0.1,0.9-0.1c0,0,0.2-1.7,2-2.6
		c0.5-0.2,1-0.4,1.7-0.5c2.8-0.3,4.7,1.7,4.7,3.5c0,0,4.1-1,5,3.5h9.6l8.2-7"/>
	<path class="st0" d="M55.3,47.3c0,2.7-2.2,4.9-5,4.9s-5-2.2-5-4.9c0-1.2,0.4-2.3,1.1-3.2c-0.3-0.5-0.4-1.2-0.4-1.8
		c0-1.4,0.7-2.7,1.8-3.5c-0.3-0.5-0.5-1-0.5-1.6c0-1.6,1.3-2.9,2.9-2.9s2.9,1.3,2.9,2.9c0,0.6-0.2,1.1-0.5,1.6
		c1.1,0.8,1.8,2,1.8,3.5c0,0.6-0.1,1.3-0.4,1.8C54.8,45,55.3,46.1,55.3,47.3z"/>
	<line class="st0" x1="50.3" y1="59.6" x2="50.3" y2="52.3"/>
	<line class="st0" x1="10.6" y1="23.5" x2="54.3" y2="23.5"/>
	<line class="st0" x1="7.5" y1="31" x2="56.4" y2="31"/>
	<line class="st0" x1="29.2" y1="40.8" x2="26.4" y2="44.8"/>
	<line class="st0" x1="34.4" y1="38.9" x2="31.6" y2="42.8"/>
	<line class="st0" x1="23.9" y1="14.8" x2="21.1" y2="18.8"/>
	<line class="st0" x1="29.1" y1="12.8" x2="26.3" y2="16.8"/>
	<path class="st0" d="M27.7,55.7c0,0,4-0.8,4,3.9"/>
	<line class="st0" x1="2.2" y1="59.6" x2="58.7" y2="59.6"/>
</g>
</svg>
