<?xml version="1.0" encoding="utf-8"?>
<!-- Generator: Adobe Illustrator 28.3.0, SVG Export Plug-In . SVG Version: 6.00 Build 0)  -->
<svg version="1.0" id="Layer_1" xmlns="http://www.w3.org/2000/svg" xmlns:xlink="http://www.w3.org/1999/xlink" x="0px" y="0px"
	 viewBox="0 0 64 64" style="enable-background:new 0 0 64 64;" xml:space="preserve">
<style type="text/css">
	.st0{fill:none;stroke:#231F20;stroke-width:2;stroke-linecap:round;stroke-linejoin:round;stroke-miterlimit:10;}
</style>
<g>
	<path class="st0" d="M28.6,58.7c0.7-5,5.7-4.6,5.7-4.6s0.3-3.7,3.6-4.4c0.3-0.1,0.6-0.1,1-0.1c0,0,0.2-2,2.1-3
		c0.5-0.3,1.1-0.5,1.8-0.5c2.9-0.3,4.8,2,4.8,4c0,0,4.3-1.2,5.1,4c0,0,4.1-0.9,4.1,4.6"/>
	<path class="st0" d="M6.6,58.7L3.4,44.3c-1.2-5.2,2.5-10.1,7.3-9.7l14.9,1.3c3.1,0.3,5.5-3,4.7-6.4l-4.4-17.7
		c-0.8-3.2,1.4-6.4,4.4-6.4h26.1c2.9,0,5,3,4.4,6.1L53,54.1"/>
	<path class="st0" d="M11.4,58.7L7.7,42.6c-0.4-1.6,0.7-3.1,2.1-3l15.2,1.5c6.9,0,10.3-5.5,8.9-12l-3.6-16.3c-0.4-1.5,0.7-3,2.1-3
		h21.7c1.3,0,2.3,1.4,2.1,2.8l-7,37.5"/>
	<line class="st0" x1="3.6" y1="58.7" x2="58.4" y2="58.7"/>
	<line class="st0" x1="42.7" y1="9.7" x2="42.7" y2="46.1"/>
	<line class="st0" x1="25.1" y1="41.1" x2="25.1" y2="58.7"/>
	<polyline class="st0" points="25.1,49.9 17.5,49.9 17.5,58.7 	"/>
	<line class="st0" x1="21.3" y1="49.9" x2="21.3" y2="58.7"/>
</g>
</svg>
