<?xml version="1.0" encoding="utf-8"?>
<!-- Generator: Adobe Illustrator 28.3.0, SVG Export Plug-In . SVG Version: 6.00 Build 0)  -->
<svg version="1.0" id="Layer_1" xmlns="http://www.w3.org/2000/svg" xmlns:xlink="http://www.w3.org/1999/xlink" x="0px" y="0px"
	 viewBox="0 0 64 64" style="enable-background:new 0 0 64 64;" xml:space="preserve">
<style type="text/css">
	.st0{fill:none;stroke:#231F20;stroke-width:2;stroke-linecap:round;stroke-linejoin:round;stroke-miterlimit:10;}
</style>
<g>
	<path class="st0" d="M33.3,54.5c0.5-3.2,4-2.9,4-2.9s0.2-2.4,2.5-2.8c0.2,0,0.4-0.1,0.7-0.1c0,0,0.2-1.3,1.4-1.9
		c0.3-0.2,0.7-0.3,1.2-0.3c2-0.2,3.3,1.3,3.3,2.6c0,0,2.9-0.7,3.6,2.6c0,0,2.8-0.6,2.8,2.9"/>
	<path class="st0" d="M41.5,38.6c0,0-7.3-3.9-16.5,0.5C11.7,45.4,0.6,39.6,2.5,23.9c2-16.6,14.1-16.5,22.7-11.4
		c10,5.9,14.1,7.7,23.4,6.1c7.1-1.2,13.2,1.7,13.1,9.1C61.7,35.8,58.3,46.4,41.5,38.6z"/>
	<path class="st0" d="M47.1,48.9c1.1-3,3.3-6.3,7.6-8"/>
	<path class="st0" d="M33.3,54.5H28h-4.2c-2.4,0-4.7-1.8-5.3-4.5c-0.3-1.3-0.7-2.4-1.3-3.3c-2.4-4.3-6.4-5.6-6.4-5.6"/>
	<line class="st0" x1="6.2" y1="54.5" x2="56.1" y2="54.5"/>
	<path class="st0" d="M38.6,34.1c0,0-6.6-2.2-13.9,1.2c-11.4,5.2-18.9,0.4-18-9.7c0.9-11.2,8.4-14.8,19.9-7.7
		c8.2,5.1,13.8,6,20.6,5.2c6.3-0.8,10.9,0,10.9,5C58,37.2,54.7,39.6,38.6,34.1z"/>
	<path class="st0" d="M25.1,54.5v-5.1c0-0.7,0.6-1.3,1.3-1.3h8.4c0.7,0,1.3,0.6,1.3,1.3v2.3"/>
	<path class="st0" d="M8.4,54.5c0.5-3.2,4-2.9,4-2.9s0.2-2.4,2.5-2.8c0.2,0,0.4-0.1,0.7-0.1c0,0,0.2-1.3,1.4-1.9
		c0.1,0,0.1-0.1,0.2-0.1"/>
</g>
</svg>
