<?xml version="1.0" encoding="utf-8"?>
<!-- Generator: Adobe Illustrator 28.3.0, SVG Export Plug-In . SVG Version: 6.00 Build 0)  -->
<svg version="1.0" id="Layer_1" xmlns="http://www.w3.org/2000/svg" xmlns:xlink="http://www.w3.org/1999/xlink" x="0px" y="0px"
	 viewBox="0 0 64 64" style="enable-background:new 0 0 64 64;" xml:space="preserve">
<style type="text/css">
	.st0{fill:none;stroke:#231F20;stroke-width:2;stroke-linecap:round;stroke-linejoin:round;stroke-miterlimit:10;}
</style>
<g>
	<path class="st0" d="M20.1,60.9c0.6-4.3,5.6-3.9,5.6-3.9s0.3-3.2,3.5-3.8c0.3-0.1,0.6-0.1,0.9-0.1c0,0,0.2-1.7,2-2.6
		c0.5-0.2,1-0.4,1.7-0.5c2.8-0.3,4.7,1.7,4.7,3.5c0,0,4.1-1,5,3.5c0,0,4-0.8,4,3.9"/>
	<path class="st0" d="M20.1,60.9h-6.7c-4.4,0-8.1-3.6-8.1-8V11.1c0-4.4,3.6-8.1,8.1-8.1h15.2c4.4,0,8,3.6,8,8.1v39.5"/>
	<path class="st0" d="M24,57.1h-9.9c-2.7,0-4.9-2.2-4.9-4.9V11.8c0-2.7,2.2-4.9,4.9-4.9h14c2.7,0,4.9,2.2,4.9,4.9v38.5"/>
	<path class="st0" d="M36.7,17.9h10.8c3.9,0,7.1,3.2,7.1,7.1v35.9"/>
	<path class="st0" d="M36.7,21.3h10.2c2.4,0,4.3,1.9,4.3,4.3v20.6"/>
	<line class="st0" x1="5.4" y1="60.9" x2="58.6" y2="60.9"/>
	<line class="st0" x1="41.8" y1="21.3" x2="41.8" y2="54"/>
	<line class="st0" x1="46.2" y1="21.3" x2="46.2" y2="46.2"/>
	<polyline class="st0" points="46.2,57.5 46.2,49.8 51.2,49.8 51.2,60.9 	"/>
</g>
</svg>
