<?xml version="1.0" encoding="utf-8"?>
<!-- Generator: Adobe Illustrator 28.3.0, SVG Export Plug-In . SVG Version: 6.00 Build 0)  -->
<svg version="1.0" id="Layer_1" xmlns="http://www.w3.org/2000/svg" xmlns:xlink="http://www.w3.org/1999/xlink" x="0px" y="0px"
	 viewBox="0 0 64 64" style="enable-background:new 0 0 64 64;" xml:space="preserve">
<style type="text/css">
	.st0{fill:none;stroke:#231F20;stroke-width:2;stroke-linecap:round;stroke-linejoin:round;stroke-miterlimit:10;}
</style>
<g>
	<path class="st0" d="M49.2,16.4c0,2.3-1.8,4.1-4.1,4.1s-4.1-1.8-4.1-4.1c0-1,0.3-1.9,0.9-2.6c-0.2-0.4-0.3-1-0.3-1.5
		c0-1.2,0.6-2.2,1.5-2.9c-0.3-0.4-0.4-0.8-0.4-1.3c0-1.3,1.1-2.4,2.4-2.4s2.4,1.1,2.4,2.4c0,0.5-0.1,0.9-0.4,1.3
		c0.9,0.6,1.5,1.7,1.5,2.9c0,0.5-0.1,1-0.3,1.5C48.8,14.5,49.2,15.4,49.2,16.4z"/>
	<line class="st0" x1="45" y1="23.8" x2="45" y2="20.6"/>
	<path class="st0" d="M33.1,38.3H9.3c-2.5,0-4.6-2-4.6-4.6V9.9c0-2.5,2-4.6,4.6-4.6h23.8c2.5,0,4.6,2,4.6,4.6v23.8
		C37.7,36.3,35.6,38.3,33.1,38.3z"/>
	<line class="st0" x1="28.1" y1="48.1" x2="28.1" y2="38.3"/>
	<path class="st0" d="M37.7,28.8h16.1c2.3,0,4.1,1.9,4.1,4.1v21.5c0,2.3-1.8,4.1-4.1,4.1H43.3"/>
	<path class="st0" d="M31.7,34.5H10.7c-1.2,0-2.2-1-2.2-2.2V11.4c0-1.2,1-2.2,2.2-2.2h20.9c1.2,0,2.2,1,2.2,2.2v20.9
		C33.9,33.5,32.9,34.5,31.7,34.5z"/>
	<line class="st0" x1="32" y1="48.1" x2="32" y2="38.3"/>
	<path class="st0" d="M37.7,32.7h14.4c1.1,0,1.9,0.9,1.9,1.9v18.1c0,1.1-0.9,1.9-1.9,1.9H40.7"/>
	<path class="st0" d="M15.8,58.6c0.6-4.3,5.6-3.9,5.6-3.9s0.3-3.2,3.5-3.8c0.3-0.1,0.6-0.1,0.9-0.1c0,0,0.2-1.7,2-2.6
		c0.5-0.2,1-0.4,1.7-0.5c2.8-0.3,4.7,1.7,4.7,3.5c0,0,4.1-1,5,3.5c0,0,4-0.8,4,3.9"/>
	<line class="st0" x1="4" y1="58.6" x2="60" y2="58.6"/>
	<line class="st0" x1="9.3" y1="38.3" x2="9.3" y2="58.6"/>
	<line class="st0" x1="14" y1="38.3" x2="14" y2="58.6"/>
	<line class="st0" x1="18.8" y1="55.1" x2="18.8" y2="38.3"/>
	<line class="st0" x1="23.5" y1="51.4" x2="23.5" y2="38.3"/>
	<rect x="37.7" y="23.8" class="st0" width="13.6" height="5.1"/>
</g>
</svg>
