<?xml version="1.0" encoding="utf-8"?>
<!-- Generator: Adobe Illustrator 28.3.0, SVG Export Plug-In . SVG Version: 6.00 Build 0)  -->
<svg version="1.0" id="Layer_1" xmlns="http://www.w3.org/2000/svg" xmlns:xlink="http://www.w3.org/1999/xlink" x="0px" y="0px"
	 viewBox="0 0 64 64" style="enable-background:new 0 0 64 64;" xml:space="preserve">
<style type="text/css">
	.st0{fill:none;stroke:#231F20;stroke-width:2;stroke-linecap:round;stroke-linejoin:round;stroke-miterlimit:10;}
</style>
<g>
	<path class="st0" d="M20.8,48.1c0,2.3-1.9,4.2-4.3,4.2c-2.4,0-4.3-1.9-4.3-4.2c0-1,0.4-2,1-2.7c-0.2-0.5-0.4-1-0.4-1.5
		c0-1.2,0.6-2.3,1.6-3C14.2,40.5,14,40,14,39.5c0-1.4,1.1-2.5,2.5-2.5c1.4,0,2.5,1.1,2.5,2.5c0,0.5-0.2,1-0.4,1.4
		c0.9,0.6,1.6,1.7,1.6,3c0,0.6-0.1,1.1-0.4,1.5C20.4,46.1,20.8,47.1,20.8,48.1z"/>
	<line class="st0" x1="16.5" y1="58.6" x2="16.5" y2="52.3"/>
	<path class="st0" d="M22.8,58.6L26,43.5c0.5-2.5,1.5-3.8,3.5-6.9l12.7-20c0.5-0.8,1.3-1.2,2.2-1.2h12.4c1.5,0,2.7,1.2,2.7,2.7v40.6
		"/>
	<path class="st0" d="M32.7,58.6l-2.5-12.9c-0.3-1.3,0-2.7,0.7-3.9l12.4-21c0.4-0.6,1.1-1,1.9-1h10.7v38.9"/>
	<path class="st0" d="M5.1,58.6V8c0-1.5,1.2-2.7,2.7-2.7h17.2c0.9,0,1.8,0.5,2.2,1.2l10.7,16.9"/>
	<path class="st0" d="M8.7,58.6V9.7h15.4c0.8,0,1.5,0.4,1.9,1l7.3,20"/>
	<line class="st0" x1="2.1" y1="58.6" x2="61.9" y2="58.6"/>
	<rect x="50.6" y="48.5" class="st0" width="5.3" height="10.1"/>
	<line class="st0" x1="43.4" y1="37.2" x2="40.6" y2="41.2"/>
	<line class="st0" x1="48.6" y1="35.2" x2="45.8" y2="39.2"/>
	<line class="st0" x1="18.6" y1="23.8" x2="15.8" y2="27.7"/>
	<line class="st0" x1="23.7" y1="21.8" x2="20.9" y2="25.7"/>
</g>
</svg>
